<?xml version="1.0" encoding="iso-8859-1"?>
<!-- Generator: Adobe Illustrator 16.0.0, SVG Export Plug-In . SVG Version: 6.00 Build 0)  -->
<!DOCTYPE svg PUBLIC "-//W3C//DTD SVG 1.1//EN" "http://www.w3.org/Graphics/SVG/1.1/DTD/svg11.dtd">
<svg version="1.1" id="Capa_1" xmlns="http://www.w3.org/2000/svg" xmlns:xlink="http://www.w3.org/1999/xlink" x="0px" y="0px"
	 width="59.596px" height="59.596px" viewBox="0 0 59.596 59.596" style="enable-background:new 0 0 59.596 59.596;"
	 xml:space="preserve">
<g>
	<g>
		<path d="M7.142,37.065c3.104,5.432,4.656,4.191,5.431,0.156c0.776-4.036,3.984,1.382,6.363,1.862
			c2.114,0.425,4.501-2.076,6.828-2.745c2.321-0.667,4.021,1.488,4.033,1.501c0.012-0.013,1.714-2.168,4.035-1.501
			c2.329,0.669,4.721,3.195,6.828,2.745c2.244-0.48,5.587-5.897,6.363-1.862s2.328,5.275,5.431-0.156
			c3.104-5.431,6.983,12.882,7.14,2.949c0.103-6.576-3.879-15.333-6.58-20.497c-1.271-2.43-4.156-2.91-6.583-1.631
			c-6.338,3.341-10.711,1.909-13.377-0.083c-2.196-1.641-4.313-1.641-6.511,0c-2.667,1.992-7.041,3.424-13.38,0.083
			c-2.426-1.279-5.31-0.799-6.582,1.631c-2.701,5.165-6.681,13.92-6.579,20.497C0.159,49.947,4.039,31.635,7.142,37.065z"/>
	</g>
</g>
<g>
</g>
<g>
</g>
<g>
</g>
<g>
</g>
<g>
</g>
<g>
</g>
<g>
</g>
<g>
</g>
<g>
</g>
<g>
</g>
<g>
</g>
<g>
</g>
<g>
</g>
<g>
</g>
<g>
</g>
</svg>
