<?xml version="1.0" encoding="iso-8859-1"?>
<!-- Generator: Adobe Illustrator 19.0.0, SVG Export Plug-In . SVG Version: 6.00 Build 0)  -->
<svg version="1.1" id="Layer_1" xmlns="http://www.w3.org/2000/svg" xmlns:xlink="http://www.w3.org/1999/xlink" x="0px" y="0px"
	 viewBox="0 0 511.999 511.999" style="enable-background:new 0 0 511.999 511.999;" xml:space="preserve">
<g>
	<g>
		<path d="M507.533,4.462c-5.937-5.949-15.592-5.949-21.53,0l-31.422,31.417c-23.456-18.772-53.138-30.075-85.45-30.075
			c-75.58,0-137.064,61.483-137.064,137.064c0,16.299,3.008,31.871,8.251,46.383c-21.324,12.173-38.895,29.743-51.068,51.067
			c-14.512-5.244-30.085-8.251-46.383-8.251c-75.58,0-137.064,61.483-137.064,137.064c0,32.312,11.303,61.993,30.075,85.449
			L4.462,485.996c-5.943,5.949-5.943,15.592,0,21.542c5.949,5.949,15.592,5.949,21.54,0l31.417-31.417
			c23.456,18.772,53.137,30.075,85.449,30.075c75.58,0,137.064-61.483,137.064-137.064c0-48.401-25.281-90.922-63.264-115.316
			c9.109-15.32,21.829-28.04,37.149-37.149c24.395,37.983,66.916,63.264,115.316,63.264c75.58,0,137.064-61.483,137.064-137.064
			c0-32.312-11.303-61.993-30.075-85.45l31.412-31.416C513.482,20.053,513.482,10.41,507.533,4.462z M190.561,342.973
			c-5.949,5.949-15.592,5.961-21.536,0.006c-14.425-14.414-37.892-14.414-52.317,0c-5.937,5.949-15.587,5.943-21.536-0.006
			c-5.947-5.944-5.942-15.587,0.007-21.536c26.288-26.288,69.087-26.288,95.375,0C196.504,327.387,196.51,337.03,190.561,342.973z
			 M416.825,116.709c-5.949,5.949-15.592,5.961-21.536,0.006c-14.425-14.414-37.892-14.414-52.317,0
			c-5.937,5.949-15.587,5.943-21.536-0.006c-5.947-5.944-5.942-15.587,0.007-21.536c26.288-26.288,69.087-26.288,95.375,0
			C422.768,101.123,422.774,110.766,416.825,116.709z"/>
	</g>
</g>
<g>
</g>
<g>
</g>
<g>
</g>
<g>
</g>
<g>
</g>
<g>
</g>
<g>
</g>
<g>
</g>
<g>
</g>
<g>
</g>
<g>
</g>
<g>
</g>
<g>
</g>
<g>
</g>
<g>
</g>
</svg>
